<svg width="387" height="111" viewBox="0 0 387 111" fill="none" xmlns="http://www.w3.org/2000/svg">
<g clip-path="url(#clip0)">
<path d="M6.34264 35.9615H25.3706V44.6514C27.2018 40.8891 29.0829 38.3088 31.014 36.9104C32.9784 35.4787 35.3923 34.7629 38.2556 34.7629C41.2522 34.7629 44.5317 35.6952 48.0942 37.5597L41.8015 52.0429C39.4043 51.044 37.5065 50.5446 36.1081 50.5446C33.4445 50.5446 31.3803 51.6433 29.9153 53.8408C27.8177 56.9372 26.769 62.7305 26.769 71.2206V89H6.34264V35.9615ZM70.1187 53.1416L50.6912 51.094C51.4237 47.6979 52.4725 45.0343 53.8376 43.1032C55.2359 41.1388 57.2336 39.4408 59.8306 38.0091C61.6951 36.977 64.2588 36.1779 67.5217 35.6119C70.7846 35.0459 74.3138 34.7629 78.1094 34.7629C84.2023 34.7629 89.0967 35.1125 92.7924 35.8117C96.4881 36.4776 99.5678 37.8926 102.032 40.0568C103.763 41.555 105.128 43.6859 106.127 46.4494C107.126 49.1795 107.625 51.7932 107.625 54.2903V77.7131C107.625 80.2102 107.775 82.1746 108.075 83.6063C108.408 85.0046 109.107 86.8025 110.172 89H91.0943C90.3286 87.6349 89.8291 86.6028 89.5961 85.9036C89.363 85.1711 89.13 84.0391 88.8969 82.5075C86.2333 85.0712 83.5864 86.9024 80.9561 88.0012C77.3603 89.4661 73.1818 90.1986 68.4206 90.1986C62.0946 90.1986 57.2836 88.7336 53.9874 85.8037C50.7245 82.8738 49.0931 79.2613 49.0931 74.9663C49.0931 70.9376 50.275 67.6248 52.6389 65.0278C55.0029 62.4308 59.3645 60.4997 65.7238 59.2345C73.3483 57.703 78.2925 56.6375 80.5566 56.0382C82.8206 55.4056 85.2178 54.5899 87.7482 53.5911C87.7482 51.094 87.2322 49.346 86.2 48.3472C85.1679 47.3483 83.3533 46.8489 80.7563 46.8489C77.4269 46.8489 74.9298 47.3816 73.265 48.447C71.9665 49.2794 70.9177 50.8443 70.1187 53.1416ZM87.7482 63.8292C84.9515 64.828 82.0382 65.7103 79.0084 66.4761C74.8798 67.5749 72.2662 68.6569 71.1675 69.7224C70.0354 70.8211 69.4694 72.0696 69.4694 73.468C69.4694 75.0662 70.0188 76.3813 71.1175 77.4134C72.2495 78.4123 73.8976 78.9117 76.0618 78.9117C78.3258 78.9117 80.4234 78.3623 82.3545 77.2636C84.3189 76.1649 85.7006 74.8331 86.4997 73.2682C87.332 71.6701 87.7482 69.6058 87.7482 67.0754V63.8292ZM159.365 68.274L178.693 70.4715C177.627 74.5002 175.879 77.9961 173.449 80.9593C171.018 83.8893 167.905 86.1699 164.11 87.8014C160.347 89.4328 155.553 90.2486 149.726 90.2486C144.1 90.2486 139.405 89.7325 135.643 88.7003C131.914 87.6349 128.701 85.9369 126.004 83.6063C123.307 81.2423 121.193 78.4789 119.661 75.3159C118.13 72.1529 117.364 67.9577 117.364 62.7305C117.364 57.2701 118.296 52.7254 120.161 49.0963C121.526 46.4327 123.39 44.0521 125.754 41.9546C128.118 39.8237 130.549 38.2422 133.046 37.2101C137.008 35.5786 142.085 34.7629 148.278 34.7629C156.935 34.7629 163.527 36.3111 168.055 39.4075C172.616 42.5039 175.813 47.032 177.644 52.9918L158.516 55.5388C157.917 53.2748 156.818 51.5767 155.22 50.4447C153.655 49.2794 151.541 48.6967 148.877 48.6967C145.515 48.6967 142.784 49.912 140.687 52.3425C138.623 54.7397 137.59 58.3855 137.59 63.2798C137.59 67.6414 138.623 70.9543 140.687 73.2183C142.751 75.4823 145.381 76.6144 148.578 76.6144C151.241 76.6144 153.472 75.9318 155.27 74.5667C157.101 73.2017 158.466 71.1041 159.365 68.274ZM185.535 62.6306C185.535 54.54 188.265 47.881 193.725 42.6538C199.186 37.3932 206.56 34.7629 215.85 34.7629C226.471 34.7629 234.495 37.8427 239.922 44.0022C244.283 48.9631 246.464 55.0727 246.464 62.3309C246.464 70.4881 243.751 77.1804 238.324 82.4076C232.93 87.6016 225.455 90.1986 215.9 90.1986C207.376 90.1986 200.484 88.0345 195.224 83.7061C188.764 78.3457 185.535 71.3205 185.535 62.6306ZM205.911 62.5806C205.911 67.3085 206.86 70.8044 208.758 73.0685C210.689 75.3325 213.103 76.4645 215.999 76.4645C218.929 76.4645 221.327 75.3492 223.191 73.1184C225.089 70.8877 226.038 67.3085 226.038 62.3809C226.038 57.7862 225.089 54.3735 223.191 52.1428C221.293 49.8787 218.946 48.7467 216.149 48.7467C213.186 48.7467 210.739 49.8954 208.808 52.1927C206.877 54.4567 205.911 57.9194 205.911 62.5806ZM253.756 62.6306C253.756 54.54 256.486 47.881 261.946 42.6538C267.406 37.3932 274.781 34.7629 284.071 34.7629C294.692 34.7629 302.716 37.8427 308.143 44.0022C312.504 48.9631 314.685 55.0727 314.685 62.3309C314.685 70.4881 311.971 77.1804 306.544 82.4076C301.151 87.6016 293.676 90.1986 284.12 90.1986C275.597 90.1986 268.705 88.0345 263.444 83.7061C256.985 78.3457 253.756 71.3205 253.756 62.6306ZM274.132 62.5806C274.132 67.3085 275.081 70.8044 276.979 73.0685C278.91 75.3325 281.324 76.4645 284.22 76.4645C287.15 76.4645 289.547 75.3492 291.412 73.1184C293.31 70.8877 294.259 67.3085 294.259 62.3809C294.259 57.7862 293.31 54.3735 291.412 52.1428C289.514 49.8787 287.167 48.7467 284.37 48.7467C281.407 48.7467 278.96 49.8954 277.029 52.1927C275.098 54.4567 274.132 57.9194 274.132 62.5806ZM324.474 35.9615H343.402V44.6015C346.232 41.0723 349.095 38.5585 351.992 37.0602C354.888 35.5287 358.418 34.7629 362.579 34.7629C368.206 34.7629 372.601 36.4443 375.764 39.8071C378.96 43.1365 380.559 48.2972 380.559 55.2891V89H360.132V59.8338C360.132 56.5044 359.516 54.1571 358.284 52.792C357.053 51.3936 355.321 50.6944 353.09 50.6944C350.627 50.6944 348.629 51.6267 347.097 53.4912C345.566 55.3557 344.8 58.7018 344.8 63.5295V89H324.474V35.9615Z" fill="white"/>
<path d="M249.812 111.404C255.538 111.404 260.18 108.2 260.18 104.247C260.18 100.295 255.538 97.0906 249.812 97.0906C244.085 97.0906 239.443 100.295 239.443 104.247C239.443 108.2 244.085 111.404 249.812 111.404Z" fill="white"/>
<path d="M222.53 22.8006C215.358 20.156 207.515 20.2737 200.418 23.1326C193.322 25.9914 187.438 31.4032 183.828 38.3912C181.805 19.3912 185.235 6.08062 192.932 2.96674C200.63 -0.147153 211.798 7.36841 222.53 22.8006Z" fill="white"/>
<path d="M276.618 22.8006C283.791 20.156 291.633 20.2737 298.73 23.1326C305.827 25.9914 311.71 31.4032 315.32 38.3912C317.343 19.3912 313.914 6.08062 306.216 2.96674C298.518 -0.147153 287.35 7.36841 276.618 22.8006Z" fill="white"/>
</g>
<defs>
<clipPath id="clip0">
<rect width="387" height="111" fill="white"/>
</clipPath>
</defs>
</svg>
